<svg xmlns="http://www.w3.org/2000/svg" width="980" height="680" viewBox="0 0 980 680">
<rect width="980" height="680" fill="#f8f3e7"/>
<text x="490" y="36" text-anchor="middle" font-family="Inter,Arial" font-size="24" font-weight="700">Unit Cost Fit</text>
<text x="490" y="62" text-anchor="middle" font-family="Inter,Arial" font-size="14">alpha = 0.0694; y = predicted (C^2 - R^2), x = printed value</text>
<line x1="70" y1="610" x2="910" y2="610" stroke="#2d2118" stroke-width="2"/>
<line x1="70" y1="610" x2="70" y2="70" stroke="#2d2118" stroke-width="2"/>
<line x1="70" y1="610" x2="910" y2="70" stroke="#8c5d2e" stroke-width="2" stroke-dasharray="8 6"/>
<text x="490.0" y="660" text-anchor="middle" font-family="Inter,Arial" font-size="14">Observed (Cost - Rebate)(Cost + Rebate)</text>
<text x="22" y="340.0" transform="rotate(-90 22 340.0)" text-anchor="middle" font-family="Inter,Arial" font-size="14">Predicted alpha * Unit Power</text>
<line x1="70.0" y1="610" x2="70.0" y2="616" stroke="#2d2118"/>
<line x1="64" y1="610.0" x2="70" y2="610.0" stroke="#2d2118"/>
<text x="70.0" y="634" text-anchor="middle" font-family="Inter,Arial" font-size="11">0</text>
<text x="58" y="614.0" text-anchor="end" font-family="Inter,Arial" font-size="11">0</text>
<line x1="203.6" y1="610" x2="203.6" y2="616" stroke="#2d2118"/>
<line x1="64" y1="524.1" x2="70" y2="524.1" stroke="#2d2118"/>
<text x="203.6" y="634" text-anchor="middle" font-family="Inter,Arial" font-size="11">5</text>
<text x="58" y="528.1" text-anchor="end" font-family="Inter,Arial" font-size="11">5</text>
<line x1="337.2" y1="610" x2="337.2" y2="616" stroke="#2d2118"/>
<line x1="64" y1="438.2" x2="70" y2="438.2" stroke="#2d2118"/>
<text x="337.2" y="634" text-anchor="middle" font-family="Inter,Arial" font-size="11">10</text>
<text x="58" y="442.2" text-anchor="end" font-family="Inter,Arial" font-size="11">10</text>
<line x1="470.8" y1="610" x2="470.8" y2="616" stroke="#2d2118"/>
<line x1="64" y1="352.4" x2="70" y2="352.4" stroke="#2d2118"/>
<text x="470.8" y="634" text-anchor="middle" font-family="Inter,Arial" font-size="11">15</text>
<text x="58" y="356.4" text-anchor="end" font-family="Inter,Arial" font-size="11">15</text>
<line x1="604.4" y1="610" x2="604.4" y2="616" stroke="#2d2118"/>
<line x1="64" y1="266.5" x2="70" y2="266.5" stroke="#2d2118"/>
<text x="604.4" y="634" text-anchor="middle" font-family="Inter,Arial" font-size="11">20</text>
<text x="58" y="270.5" text-anchor="end" font-family="Inter,Arial" font-size="11">20</text>
<line x1="738.0" y1="610" x2="738.0" y2="616" stroke="#2d2118"/>
<line x1="64" y1="180.6" x2="70" y2="180.6" stroke="#2d2118"/>
<text x="738.0" y="634" text-anchor="middle" font-family="Inter,Arial" font-size="11">25</text>
<text x="58" y="184.6" text-anchor="end" font-family="Inter,Arial" font-size="11">25</text>
<line x1="871.5" y1="610" x2="871.5" y2="616" stroke="#2d2118"/>
<line x1="64" y1="94.7" x2="70" y2="94.7" stroke="#2d2118"/>
<text x="871.5" y="634" text-anchor="middle" font-family="Inter,Arial" font-size="11">30</text>
<text x="58" y="98.7" text-anchor="end" font-family="Inter,Arial" font-size="11">30</text>
<circle cx="390.6" cy="503.7" r="5" fill="#ffd447" stroke="#271d14" stroke-width="1.5"/>
<text x="398.6" y="495.7" text-anchor="start" font-family="Inter,Arial" font-size="11" fill="#271d14">Skeleton</text>
<circle cx="390.6" cy="481.2" r="5" fill="#ffd447" stroke="#271d14" stroke-width="1.5"/>
<text x="382.6" y="473.2" text-anchor="end" font-family="Inter,Arial" font-size="11" fill="#271d14">Serpent</text>
<circle cx="283.7" cy="452.6" r="5" fill="#ffd447" stroke="#271d14" stroke-width="1.5"/>
<text x="291.7" y="444.6" text-anchor="start" font-family="Inter,Arial" font-size="11" fill="#271d14">Warg</text>
<circle cx="310.5" cy="525.0" r="5" fill="#ffd447" stroke="#271d14" stroke-width="1.5"/>
<text x="302.5" y="517.0" text-anchor="end" font-family="Inter,Arial" font-size="11" fill="#271d14">Ghost</text>
<circle cx="470.8" cy="432.9" r="5" fill="#ffd447" stroke="#271d14" stroke-width="1.5"/>
<text x="478.8" y="424.9" text-anchor="start" font-family="Inter,Arial" font-size="11" fill="#271d14">Wight</text>
<circle cx="711.2" cy="373.3" r="5" fill="#ffd447" stroke="#271d14" stroke-width="1.5"/>
<text x="703.2" y="365.3" text-anchor="end" font-family="Inter,Arial" font-size="11" fill="#271d14">Haunt</text>
<circle cx="631.1" cy="366.7" r="5" fill="#ffd447" stroke="#271d14" stroke-width="1.5"/>
<text x="639.1" y="358.7" text-anchor="start" font-family="Inter,Arial" font-size="11" fill="#271d14">Shrieker</text>
<circle cx="390.6" cy="438.0" r="5" fill="#ffd447" stroke="#271d14" stroke-width="1.5"/>
<text x="382.6" y="430.0" text-anchor="end" font-family="Inter,Arial" font-size="11" fill="#271d14">Specter</text>
<circle cx="150.2" cy="542.9" r="5" fill="#ffd447" stroke="#271d14" stroke-width="1.5"/>
<text x="158.2" y="534.9" text-anchor="start" font-family="Inter,Arial" font-size="11" fill="#271d14">Rat</text>
<circle cx="631.1" cy="280.2" r="5" fill="#ffd447" stroke="#271d14" stroke-width="1.5"/>
<text x="623.1" y="272.2" text-anchor="end" font-family="Inter,Arial" font-size="11" fill="#271d14">Sorcerer</text>
<circle cx="470.8" cy="336.8" r="5" fill="#ffd447" stroke="#271d14" stroke-width="1.5"/>
<text x="478.8" y="328.8" text-anchor="start" font-family="Inter,Arial" font-size="11" fill="#271d14">Witch</text>
<circle cx="390.6" cy="481.0" r="5" fill="#ffd447" stroke="#271d14" stroke-width="1.5"/>
<text x="382.6" y="473.0" text-anchor="end" font-family="Inter,Arial" font-size="11" fill="#271d14">Vampire</text>
<circle cx="470.8" cy="422.8" r="5" fill="#ffd447" stroke="#271d14" stroke-width="1.5"/>
<text x="478.8" y="414.8" text-anchor="start" font-family="Inter,Arial" font-size="11" fill="#271d14">Gargoyle</text>
<circle cx="631.1" cy="320.2" r="5" fill="#ffd447" stroke="#271d14" stroke-width="1.5"/>
<text x="623.1" y="312.2" text-anchor="end" font-family="Inter,Arial" font-size="11" fill="#271d14">Lich</text>
<circle cx="497.5" cy="140.4" r="5" fill="#ffd447" stroke="#271d14" stroke-width="1.5"/>
<text x="505.5" y="132.4" text-anchor="start" font-family="Inter,Arial" font-size="11" fill="#271d14">Void</text>
<circle cx="497.5" cy="286.9" r="5" fill="#ffd447" stroke="#271d14" stroke-width="1.5"/>
<text x="489.5" y="278.9" text-anchor="end" font-family="Inter,Arial" font-size="11" fill="#271d14">Cerberus</text>
<circle cx="631.1" cy="228.6" r="5" fill="#ffd447" stroke="#271d14" stroke-width="1.5"/>
<text x="639.1" y="220.6" text-anchor="start" font-family="Inter,Arial" font-size="11" fill="#271d14">Wraith</text>
<circle cx="310.5" cy="310.4" r="5" fill="#ffd447" stroke="#271d14" stroke-width="1.5"/>
<text x="302.5" y="302.4" text-anchor="end" font-family="Inter,Arial" font-size="11" fill="#271d14">Horror</text>
<circle cx="604.4" cy="255.8" r="5" fill="#ffd447" stroke="#271d14" stroke-width="1.5"/>
<text x="612.4" y="247.8" text-anchor="start" font-family="Inter,Arial" font-size="11" fill="#271d14">Banshee</text>
</svg>